 <svg
      xmlns="http://www.w3.org/2000/svg"
      width="499.985"
      height="425.305"
      version="1.1"
      viewBox="0 0 132.288 112.529"
      xmlSpace="preserve"
    >
      <g transform="translate(-43.999 -115.017)">
        <path
          fill="#f2c700"
          strokeWidth="0.254"
          d="M106.554 224.643c-15.503-3.225-31.662-10.391-48.698-21.598-6.395-4.207-11.09-7.557-11.09-7.912 0-.437.765-.825 10.475-5.311 5.387-2.489 9.776-4.62 9.754-4.736-.41-2.195-.642-8.021-.52-13.063.413-17.239 5.056-30.353 14.06-39.72 6.62-6.885 16.294-11.599 27.375-13.336 3.358-.526 14.574-.759 18.454-.382 9.746.945 21.092 5.931 28.632 12.582 5.398 4.761 9.4 9.412 11.979 13.922 11.27 19.704 9.192 43.651-5.269 60.736-7.963 9.407-19.263 16.04-31.861 18.699-2.954.623-3.662.67-11.436.763l-8.286.099z"
          display="inline"
        ></path>
        <path
          fill="#d20c23"
          strokeDasharray="none"
          strokeWidth="95.291"
          d="M136.949 181.182c-1.424.003-2.753.117-3.729.355-5.133 1.248-6.73 5.154-3.435 8.4 1.685 1.658 4.694 3.066 7.643 3.573 1.95.335 7.781.123 9.35-.34 2.627-.776 4.486-2.608 4.488-4.423.003-2.652-2.844-5.165-7.604-6.713-1.705-.554-4.34-.857-6.713-.852z"
          display="inline"
        ></path>
        <path
          fill="#000"
          strokeWidth="0.265"
          d="M107.234 226.7c-17.877-3.71-34.572-11.215-53.583-24.085-5.628-3.81-9.652-6.77-9.652-7.096 0-.253 4.879-2.62 14.897-7.226l6.297-2.896-.142-.926c-.48-3.112-.731-8.676-.599-13.23.574-19.716 6.798-35.219 17.849-44.457 7.907-6.61 18.19-10.502 30.093-11.39 5.091-.38 13.55-.171 16.933.417 8.907 1.549 18.98 6.11 25.41 11.51 4.565 3.83 9.138 8.673 11.786 12.424.334.473.637.928.906 1.363 5.841 9.434 8.667 19.258 8.667 30.134 0 8.99-1.799 16.677-5.776 24.688-7.083 14.269-20.402 25.069-36.302 29.435-5.49 1.508-7.329 1.722-15.936 1.85-7.445.11-7.945.087-10.848-.516zm13.703-4.925c5.104-.31 7.184-.706 11.954-2.274 18.728-6.158 32.3-21.378 35.48-39.793 3.412-19.748-5.334-39.631-22.375-50.872-8.66-5.712-18.01-8.394-29.26-8.394-9.365 0-16.951 1.527-23.79 4.79-4.904 2.34-8.152 4.691-11.948 8.648-6.64 6.923-10.972 16.861-12.515 28.71-.468 3.589-.565 17.78-.149 21.735.185 1.76.168 2.464-.066 2.747-.324.39-7.145 3.825-13.884 6.992-2.074.974-3.77 1.883-3.77 2.02 0 .335 2.502 2.088 7.346 5.146 5.213 3.29 9.057 5.43 15.275 8.5 9.8 4.84 15.504 7.165 22.674 9.241 9.674 2.8 15.095 3.408 25.028 2.804zm17.602-28.058c-4.67-.572-8.776-2.86-10.123-5.642-.672-1.39-.68-2.354-.03-3.786.997-2.196 3.631-3.442 7.82-3.7 7.272-.45 14.717 3.167 15.36 7.461.346 2.3-1.62 4.399-4.909 5.243-1.975.507-5.809.707-8.118.424zm6.672-1.862c2.912-.538 4.621-1.863 4.621-3.583 0-1.273-1.47-2.792-3.802-3.93-2.537-1.24-4.524-1.72-7.84-1.897-5.621-.3-9.337 1.496-8.802 4.255.335 1.721 4.476 4.56 7.53 5.161 1.675.33 6.495.327 8.293-.006zm-14.971-16.988c-4.38-1.243-6.919-5.998-5.714-10.7 1.644-6.418 6.39-9.962 13.797-10.305 4.467-.206 7.993.747 10.526 2.846 1.686 1.396 4.575 6.873 4.37 8.28-.069.465-.339.316-1.965-1.086-3.377-2.91-6.864-4.856-9.36-5.224-1.263-.186-2.645.173-2.645.687 0 .17.485.835 1.078 1.478 1.597 1.732 1.935 2.71 1.951 5.636.012 2.29-.052 2.626-.729 3.776-1.754 2.985-4.547 4.665-8.055 4.847-1.211.063-2.543-.033-3.254-.235zm-47.794-4.938c-2.844-1.44-4.255-3.629-4.498-6.977-.155-2.14.358-4.797 1.27-6.587.97-1.899 3.291-4.081 5.54-5.206 2.54-1.272 5.25-1.714 9.644-1.575 2.882.092 3.334.176 4.9.915 2.693 1.271 4.797 3.398 6.22 6.29 1.22 2.48 1.72 4.134 1.251 4.134-.144 0-1.456-.983-2.915-2.184-2.964-2.44-5.403-3.782-7.625-4.192-1.66-.307-3.55-.098-3.55.392 0 .176.468.778 1.041 1.338 1.668 1.628 2.213 3.219 2.085 6.086-.09 2.031-.225 2.613-.882 3.816-1.579 2.892-4.16 4.299-8.198 4.468-2.545.107-2.708.08-4.283-.718z"
          display="inline"
        ></path>
      </g>
    </svg>
